<svg width="16" height="15" viewBox="0 0 16 15" fill="none" xmlns="http://www.w3.org/2000/svg">
<g clip-path="url(#clip0_313_643)">
<mask id="path-1-inside-1_313_643" fill="white">
<path d="M0 0H16V5H0V0Z"/>
</mask>
<path d="M0 0H16V5H0V0Z" fill="#F72E41"/>
<path d="M16 4H0V6H16V4Z" fill="black" fill-opacity="0.2" mask="url(#path-1-inside-1_313_643)"/>
<mask id="path-3-inside-2_313_643" fill="white">
<path d="M0 5H16V10H0V5Z"/>
</mask>
<path d="M0 5H16V10H0V5Z" fill="#0066CC"/>
<path d="M16 9H0V11H16V9Z" fill="black" fill-opacity="0.2" mask="url(#path-3-inside-2_313_643)"/>
<mask id="path-5-inside-3_313_643" fill="white">
<path d="M0 10H16V15H0V10Z"/>
</mask>
<path d="M0 10H16V15H0V10Z" fill="#1D7044"/>
<path d="M16 14H0V16H16V14Z" fill="black" fill-opacity="0.2" mask="url(#path-5-inside-3_313_643)"/>
<mask id="path-7-inside-4_313_643" fill="white">
<path d="M6 0H10V15H6V0Z"/>
</mask>
<path d="M6 0H10V15H6V0Z" fill="#FDA855"/>
<path d="M9 0V15H11V0H9ZM7 15V0H5V15H7Z" fill="black" fill-opacity="0.2" mask="url(#path-7-inside-4_313_643)"/>
<rect x="1" y="1" width="1" height="3" fill="#FFC531"/>
<rect x="1" y="6" width="1" height="3" fill="#FFC531"/>
<rect x="1" y="11" width="1" height="3" fill="#FFC531"/>
<path fill-rule="evenodd" clip-rule="evenodd" d="M5 9.5V6.5H6V9.5C6 9.77614 6.22386 10 6.5 10H9.5C9.77614 10 10 9.77614 10 9.5V6.5H11V9.5C11 10.3284 10.3284 11 9.5 11H6.5C5.67157 11 5 10.3284 5 9.5Z" fill="#D7D7D7"/>
</g>
<defs>
<clipPath id="clip0_313_643">
<rect width="16" height="15" fill="white"/>
</clipPath>
</defs>
</svg>
