<svg width="20" height="20" viewBox="0 0 20 20" fill="none" xmlns="http://www.w3.org/2000/svg">
<path fill-rule="evenodd" clip-rule="evenodd" d="M17.9872 17.3685C17.9872 17.9291 17.9169 18 17.3606 18H5.63307C5.06395 18 5 17.9356 5 17.3427V2.58639C5 2.09023 5.08313 2.00644 5.58193 2.00644C8.56816 2.00644 11.548 2.00644 14.5342 2C14.79 2 14.9754 2.0709 15.1545 2.25775C15.9986 3.12122 16.849 3.98469 17.7122 4.82883C17.9233 5.03502 18 5.25415 18 5.53768C17.9872 9.48773 17.9872 13.4313 17.9872 17.3685Z" fill="white"/>
<path fill-rule="evenodd" clip-rule="evenodd" d="M17.9872 17.3685C17.9872 17.9291 17.9169 18 17.3606 18H5.63307C5.06395 18 5 17.9356 5 17.3427V2.58639C5 2.09023 5.08313 2.00644 5.58193 2.00644C8.56816 2.00644 11.548 2.00644 14.5342 2C14.79 2 14.9754 2.0709 15.1545 2.25775C15.9986 3.12122 16.849 3.98469 17.7122 4.82883C17.9233 5.03502 18 5.25415 18 5.53768C17.9872 9.48773 17.9872 13.4313 17.9872 17.3685ZM14 3.00109V5.3C14 5.6866 14.3134 6 14.7 6H16.9986C16.9876 9.67295 16.9873 13.34 16.9872 17H6V3.00679C8.66756 3.00677 11.3314 3.00622 14 3.00109ZM15 3.52905C15.4829 4.02068 15.9698 4.51241 16.4612 5H15V3.52905Z" fill="#3C388D"/>
</svg>
