<svg width="14" height="14" viewBox="0 0 14 14" fill="none" xmlns="http://www.w3.org/2000/svg">
<path d="M12.7281 1.41416C13.5092 2.1952 13.5092 3.46153 12.7281 4.24258L9.8997 7.07099L12.7282 9.89944C13.5092 10.6805 13.5092 11.9468 12.7282 12.7279C11.9471 13.5089 10.6808 13.5089 9.89973 12.7279L7.07128 9.89941L4.24283 12.7279C3.46178 13.5089 2.19545 13.5089 1.4144 12.7279C0.633351 11.9468 0.633351 10.6805 1.4144 9.89944L4.24285 7.07099L1.41445 4.24258C0.633397 3.46153 0.633397 2.1952 1.41445 1.41416C2.19549 0.633107 3.46182 0.633107 4.24287 1.41416L7.07128 4.24256L9.89968 1.41416C10.6807 0.633107 11.9471 0.633107 12.7281 1.41416Z" fill="#3c388d"/>
</svg>
